HIERARCHY
ROOT Hips
{
	OFFSET 0.000000 1.471914 24.280096
	CHANNELS 6 Xposition Yposition Zposition Xrotation Yrotation Zrotation
	JOINT Spine
	{
		OFFSET 0.000000 0.900110 1.860670
		CHANNELS 6 Xposition Yposition Zposition Xrotation Yrotation Zrotation
		JOINT Spine1
		{
			OFFSET 0.000000 0.400320 2.270309
			CHANNELS 6 Xposition Yposition Zposition Xrotation Yrotation Zrotation
			JOINT Spine2
			{
				OFFSET 0.000000 0.200920 2.296560
				CHANNELS 6 Xposition Yposition Zposition Xrotation Yrotation Zrotation
				JOINT Spine3
				{
					OFFSET 0.000000 0.000000 2.305330
					CHANNELS 6 Xposition Yposition Zposition Xrotation Yrotation Zrotation
					JOINT Neck
					{
						OFFSET 0.000000 -0.864490 6.051487
						CHANNELS 6 Xposition Yposition Zposition Xrotation Yrotation Zrotation
						JOINT Head
						{
							OFFSET 0.000000 -0.550429 3.121674
							CHANNELS 6 Xposition Yposition Zposition Xrotation Yrotation Zrotation
							End Site
							{
								OFFSET 0.000000 0.000000 3.731750
							}
						}
					}
					JOINT RightShoulder
					{
						OFFSET -0.788280 -1.313800 4.256718
						CHANNELS 6 Xposition Yposition Zposition Xrotation Yrotation Zrotation
						JOINT RightArm
						{
							OFFSET -3.915130 0.000000 0.000000
							CHANNELS 6 Xposition Yposition Zposition Xrotation Yrotation Zrotation
							JOINT RightForeArm
							{
								OFFSET -6.914910 0.000000 0.000000
								CHANNELS 6 Xposition Yposition Zposition Xrotation Yrotation Zrotation
								JOINT RightHand
								{
									OFFSET -6.096219 0.000000 0.000000
									CHANNELS 6 Xposition Yposition Zposition Xrotation Yrotation Zrotation
									JOINT RightHandEnd
									{
										OFFSET -1.749950 0.000000 0.000000
										CHANNELS 6 Xposition Yposition Zposition Xrotation Yrotation Zrotation
										End Site
										{
											OFFSET -1.749950 0.000000 0.000000
										}
									}
									JOINT RightHandThumb1
									{
										OFFSET -0.699980 -1.166630 -0.466648
										CHANNELS 6 Xposition Yposition Zposition Xrotation Yrotation Zrotation
										End Site
										{
											OFFSET -1.690319 -0.452920 0.000000
										}
									}
								}
							}
						}
					}
					JOINT LeftShoulder
					{
						OFFSET 0.788280 -1.313800 4.256718
						CHANNELS 6 Xposition Yposition Zposition Xrotation Yrotation Zrotation
						JOINT LeftArm
						{
							OFFSET 3.915130 0.000000 0.000000
							CHANNELS 6 Xposition Yposition Zposition Xrotation Yrotation Zrotation
							JOINT LeftForeArm
							{
								OFFSET 6.914910 0.000000 0.000000
								CHANNELS 6 Xposition Yposition Zposition Xrotation Yrotation Zrotation
								JOINT LeftHand
								{
									OFFSET 6.096219 0.000000 0.000000
									CHANNELS 6 Xposition Yposition Zposition Xrotation Yrotation Zrotation
									JOINT LeftHandEnd
									{
										OFFSET 1.749950 0.000000 0.000000
										CHANNELS 6 Xposition Yposition Zposition Xrotation Yrotation Zrotation
										End Site
										{
											OFFSET 1.749950 0.000000 0.000000
										}
									}
									JOINT LeftHandThumb1
									{
										OFFSET 0.699980 -1.166630 -0.466648
										CHANNELS 6 Xposition Yposition Zposition Xrotation Yrotation Zrotation
										End Site
										{
											OFFSET 1.690319 -0.452920 0.000000
										}
									}
								}
							}
						}
					}
				}
			}
		}
	}
	JOINT RightUpLeg
	{
		OFFSET -2.338570 -0.252550 -0.551512
		CHANNELS 6 Xposition Yposition Zposition Xrotation Yrotation Zrotation
		JOINT RightLeg
		{
			OFFSET 0.000000 0.000000 -10.744959
			CHANNELS 6 Xposition Yposition Zposition Xrotation Yrotation Zrotation
			JOINT RightFoot
			{
				OFFSET 0.000000 -0.000001 -10.930849
				CHANNELS 6 Xposition Yposition Zposition Xrotation Yrotation Zrotation
				JOINT RightToeBase
				{
					OFFSET 0.000000 -4.087269 -1.487650
					CHANNELS 6 Xposition Yposition Zposition Xrotation Yrotation Zrotation
					End Site
					{
						OFFSET 0.000000 -1.891870 0.000000
					}
				}
			}
		}
	}
	JOINT LeftUpLeg
	{
		OFFSET 2.338570 -0.252550 -0.551512
		CHANNELS 6 Xposition Yposition Zposition Xrotation Yrotation Zrotation
		JOINT LeftLeg
		{
			OFFSET 0.000000 0.000000 -10.744959
			CHANNELS 6 Xposition Yposition Zposition Xrotation Yrotation Zrotation
			JOINT LeftFoot
			{
				OFFSET 0.000000 -0.000001 -10.930849
				CHANNELS 6 Xposition Yposition Zposition Xrotation Yrotation Zrotation
				JOINT LeftToeBase
				{
					OFFSET 0.000000 -4.087269 -1.487650
					CHANNELS 6 Xposition Yposition Zposition Xrotation Yrotation Zrotation
					End Site
					{
						OFFSET 0.000000 -1.891870 0.000000
					}
				}
			}
		}
	}
}
MOTION
Frames: 4
Frame Time: 0.041667
-0.000053 27.325041 34.199394 -10.467620 -0.396430 -14.641468 -0.000022 0.900104 1.860696 25.566061 13.907209 -1.973271 0.000013 0.400269 2.270329 -0.000004 -0.000000 0.000009 0.000015 0.200887 2.296522 -0.000002 -0.000000 0.000001 0.000027 0.000005 2.305342 -0.000015 0.000006 -3.742476 -0.000010 -0.864464 6.051439 -10.578025 20.952640 182.950251 0.000010 -0.550437 3.121693 -0.000001 -0.000000 -0.000004 -0.788269 -1.313732 4.256797 -141.922233 58.462547 -56.543878 -3.915085 -0.000024 -0.000027 -0.000000 -0.000000 0.000001 -6.914907 -0.000010 0.000006 -0.000001 0.000003 -94.135054 -6.096192 -0.000006 0.000016 -0.000009 0.000100 -0.000068 -1.749899 -0.000037 0.000034 -0.000001 -0.000000 0.000000 -0.699954 -1.166639 -0.466653 -0.000005 -0.000005 0.000004 0.788255 -1.313774 4.256741 -150.078968 -58.530691 55.587546 3.915167 0.000006 -0.000027 0.000004 -0.000002 0.000002 6.914929 -0.000042 -0.000002 0.000016 -0.000004 88.457657 6.096224 0.000097 -0.000026 0.000084 -0.000108 -0.000011 1.749973 0.000012 0.000029 -0.000005 -0.000009 -0.000001 0.699956 -1.166612 -0.466635 0.000008 -0.000008 -0.000021 -2.338565 -0.252540 -0.551482 -50.225441 6.916704 3.462004 0.000015 -0.000023 -10.744967 82.785629 -2.976220 4.001818 -0.000020 0.000079 -10.930834 0.000009 -0.000003 -0.000004 0.000006 -4.087267 -1.487638 -0.000001 0.000001 -0.000003 2.338575 -0.252542 -0.551459 -52.593467 4.526084 3.593158 0.000001 -0.000031 -10.744905 81.819410 -1.362833 1.753640 -0.000011 0.000013 -10.930879 0.000027 -0.000003 -0.000001 -0.000014 -4.087236 -1.487652 0.000003 0.000002 -0.000001 
-0.000053 27.325039 34.199398 -10.482937 -0.447803 -14.555480 -0.000023 0.900111 1.860691 25.585364 14.169501 -1.983388 0.000013 0.400267 2.270323 -0.000004 -0.000000 0.000009 0.000016 0.200886 2.296522 -0.000002 0.000001 0.000002 0.000029 0.000010 2.305342 -0.000018 0.000002 -3.766278 -0.000012 -0.864466 6.051432 -10.307353 21.090267 183.004141 0.000015 -0.550436 3.121693 -0.000001 0.000001 -0.000004 -0.788271 -1.313730 4.256801 -141.873602 58.602497 -56.461830 -3.915086 -0.000019 -0.000031 0.000000 0.000000 0.000000 -6.914912 -0.000012 0.000010 -0.000001 0.000004 -93.821329 -6.096189 -0.000004 0.000016 -0.000009 0.000099 -0.000066 -1.749903 -0.000039 0.000034 -0.000004 -0.000001 -0.000001 -0.699957 -1.166636 -0.466657 -0.000002 -0.000006 0.000004 0.788257 -1.313774 4.256741 -150.279721 -58.618425 55.428406 3.915166 0.000005 -0.000030 0.000004 -0.000001 0.000002 6.914926 -0.000037 0.000002 0.000015 -0.000005 88.513221 6.096220 0.000094 -0.000028 0.000086 -0.000110 -0.000012 1.749971 0.000008 0.000037 -0.000005 -0.000007 0.000002 0.699955 -1.166615 -0.466633 0.000009 -0.000003 -0.000021 -2.338565 -0.252532 -0.551482 -50.127213 7.049536 3.470189 0.000015 -0.000023 -10.744966 82.630850 -2.987356 4.115599 -0.000020 0.000082 -10.930837 0.000010 -0.000003 -0.000005 0.000006 -4.087268 -1.487637 -0.000002 0.000001 -0.000003 2.338574 -0.252536 -0.551456 -52.437329 4.529006 3.598681 0.000001 -0.000034 -10.744901 81.746750 -1.269063 1.736516 -0.000011 0.000011 -10.930872 0.000024 -0.000003 -0.000002 -0.000013 -4.087237 -1.487651 -0.000001 0.000000 -0.000002 
-0.000053 27.325041 34.199394 -10.448137 -0.410064 -14.741959 -0.000022 0.900109 1.860682 25.500983 14.233510 -1.964520 0.000012 0.400267 2.270323 -0.000003 -0.000001 0.000010 0.000015 0.200892 2.296524 0.000000 -0.000001 0.000003 0.000026 0.000005 2.305342 -0.000020 -0.000000 -3.819570 -0.000011 -0.864462 6.051438 -10.444368 21.313059 182.715374 0.000009 -0.550440 3.121696 -0.000001 0.000002 -0.000004 -0.788270 -1.313726 4.256795 -141.774141 58.793606 -56.674164 -3.915088 -0.000023 -0.000031 0.000001 0.000001 0.000000 -6.914907 -0.000009 0.000007 -0.000000 0.000003 -94.158071 -6.096189 -0.000007 0.000016 -0.000009 0.000096 -0.000066 -1.749902 -0.000039 0.000034 -0.000001 0.000000 0.000000 -0.699961 -1.166636 -0.466656 -0.000005 -0.000006 0.000005 0.788257 -1.313768 4.256742 -150.103338 -58.524565 55.633117 3.915171 0.000006 -0.000030 0.000000 -0.000003 0.000001 6.914935 -0.000039 0.000002 0.000018 -0.000006 88.257382 6.096220 0.000090 -0.000033 0.000084 -0.000110 -0.000009 1.749975 0.000011 0.000026 -0.000004 -0.000006 0.000002 0.699957 -1.166617 -0.466641 0.000009 -0.000006 -0.000020 -2.338564 -0.252537 -0.551488 -50.350737 6.876422 3.457378 0.000013 -0.000023 -10.744962 82.861929 -2.899686 3.978733 -0.000020 0.000081 -10.930839 0.000012 -0.000004 -0.000005 0.000007 -4.087268 -1.487639 -0.000000 0.000001 -0.000003 2.338575 -0.252540 -0.551462 -52.395833 4.424606 3.572378 -0.000000 -0.000033 -10.744899 81.787390 -1.206056 1.649463 -0.000010 0.000011 -10.930873 0.000026 -0.000003 -0.000002 -0.000014 -4.087235 -1.487650 -0.000002 0.000000 -0.000003 
-0.000053 27.325039 34.199402 -10.485612 -0.393064 -14.732916 -0.000022 0.900111 1.860692 25.577419 14.325970 -1.960589 0.000014 0.400273 2.270329 -0.000003 0.000000 0.000008 0.000014 0.200884 2.296522 -0.000001 0.000000 0.000002 0.000026 0.000013 2.305346 -0.000015 -0.000000 -3.822660 -0.000011 -0.864466 6.051440 -10.527622 21.540267 182.783512 0.000009 -0.550439 3.121700 -0.000001 0.000002 -0.000004 -0.788275 -1.313731 4.256801 -141.936850 58.800354 -56.545422 -3.915085 -0.000022 -0.000034 0.000000 0.000002 0.000001 -6.914907 -0.000016 0.000003 0.000000 0.000003 -94.087850 -6.096188 -0.000010 0.000021 -0.000013 0.000097 -0.000066 -1.749900 -0.000031 0.000027 -0.000002 -0.000002 0.000002 -0.699956 -1.166631 -0.466663 -0.000003 -0.000007 0.000004 0.788255 -1.313773 4.256741 -150.087888 -58.563879 55.622298 3.915170 0.000004 -0.000026 0.000002 -0.000001 0.000003 6.914928 -0.000039 -0.000001 0.000015 -0.000003 88.529511 6.096220 0.000091 -0.000030 0.000088 -0.000110 -0.000009 1.749973 0.000008 0.000026 -0.000003 -0.000010 0.000002 0.699953 -1.166613 -0.466638 0.000009 -0.000009 -0.000020 -2.338565 -0.252533 -0.551478 -50.277535 6.920079 3.436102 0.000013 -0.000025 -10.744962 82.877959 -2.905821 4.032622 -0.000020 0.000081 -10.930834 0.000010 -0.000002 -0.000002 0.000006 -4.087263 -1.487638 0.000008 -0.000000 -0.000005 2.338575 -0.252535 -0.551454 -52.450976 4.430214 3.556712 0.000001 -0.000034 -10.744905 81.764816 -1.171039 1.672313 -0.000009 0.000009 -10.930874 0.000029 -0.000002 -0.000004 -0.000015 -4.087236 -1.487649 -0.000002 -0.000000 -0.000003 
